<svg width="400" height="400" viewBox="0 0 400 400" fill="none" xmlns="http://www.w3.org/2000/svg">
  <!-- Background -->
  <rect width="400" height="400" rx="20" fill="#F0F9FF" />
  
  <!-- Lab flask 1 -->
  <path d="M120 100V220C120 242.091 137.909 260 160 260C182.091 260 200 242.091 200 220V100H120Z" fill="#BAE6FD" stroke="#0284C7" stroke-width="4"/>
  <rect x="120" y="80" width="80" height="20" rx="5" fill="#0284C7"/>
  
  <!-- Lab flask 2 -->
  <path d="M220 100V220C220 242.091 237.909 260 260 260C282.091 260 300 242.091 300 220V100H220Z" fill="#F5D0FE" stroke="#A21CAF" stroke-width="4"/>
  <rect x="220" y="80" width="80" height="20" rx="5" fill="#A21CAF"/>
  
  <!-- Bubbles in flask 1 -->
  <circle cx="140" cy="180" r="8" fill="white" fill-opacity="0.6"/>
  <circle cx="160" cy="200" r="10" fill="white" fill-opacity="0.6"/>
  <circle cx="180" cy="170" r="6" fill="white" fill-opacity="0.6"/>
  
  <!-- Bubbles in flask 2 -->
  <circle cx="240" cy="190" r="8" fill="white" fill-opacity="0.6"/>
  <circle cx="260" cy="210" r="10" fill="white" fill-opacity="0.6"/>
  <circle cx="280" cy="180" r="6" fill="white" fill-opacity="0.6"/>
  
  <!-- Product label -->
  <rect x="100" y="280" width="200" height="40" rx="5" fill="#0EA5E9"/>
  <text x="200" y="305" font-family="Arial" font-size="16" font-weight="bold" fill="white" text-anchor="middle">Premium H&E Staining Kit</text>
</svg>