<svg width="400" height="400" viewBox="0 0 400 400" fill="none" xmlns="http://www.w3.org/2000/svg">
  <!-- Background -->
  <rect width="400" height="400" rx="20" fill="#FDF2F8" />
  
  <!-- Kit box -->
  <rect x="80" y="120" width="240" height="160" rx="10" fill="#FECDD3" stroke="#BE185D" stroke-width="4"/>
  
  <!-- Box lid (open) -->
  <path d="M80 130C80 124.477 84.4772 120 90 120H310C315.523 120 320 124.477 320 130V140H80V130Z" fill="#FB7185" stroke="#BE185D" stroke-width="4"/>
  
  <!-- Bottle 1 -->
  <rect x="100" y="160" width="40" height="80" rx="5" fill="#60A5FA" stroke="#1E40AF" stroke-width="2"/>
  <rect x="100" y="150" width="40" height="10" rx="2" fill="#1E40AF"/>
  <text x="120" y="200" font-family="Arial" font-size="10" fill="white" text-anchor="middle">MT-1</text>
  
  <!-- Bottle 2 -->
  <rect x="150" y="160" width="40" height="80" rx="5" fill="#34D399" stroke="#065F46" stroke-width="2"/>
  <rect x="150" y="150" width="40" height="10" rx="2" fill="#065F46"/>
  <text x="170" y="200" font-family="Arial" font-size="10" fill="white" text-anchor="middle">MT-2</text>
  
  <!-- Bottle 3 -->
  <rect x="200" y="160" width="40" height="80" rx="5" fill="#A78BFA" stroke="#5B21B6" stroke-width="2"/>
  <rect x="200" y="150" width="40" height="10" rx="2" fill="#5B21B6"/>
  <text x="220" y="200" font-family="Arial" font-size="10" fill="white" text-anchor="middle">MT-3</text>
  
  <!-- Bottle 4 -->
  <rect x="250" y="160" width="40" height="80" rx="5" fill="#FBBF24" stroke="#92400E" stroke-width="2"/>
  <rect x="250" y="150" width="40" height="10" rx="2" fill="#92400E"/>
  <text x="270" y="200" font-family="Arial" font-size="10" fill="white" text-anchor="middle">ELS</text>
  
  <!-- Microscope slide -->
  <rect x="120" y="260" width="160" height="40" rx="2" fill="#E0E7FF" stroke="#4338CA" stroke-width="2"/>
  <rect x="130" y="270" width="140" height="20" rx="1" fill="#818CF8" fill-opacity="0.3" stroke="#4338CA" stroke-width="1"/>
  
  <!-- Product label -->
  <rect x="100" y="320" width="200" height="40" rx="5" fill="#BE185D"/>
  <text x="200" y="345" font-family="Arial" font-size="14" font-weight="bold" fill="white" text-anchor="middle">Special Stains Kit - Connective Tissue</text>
</svg>