<svg xmlns="http://www.w3.org/2000/svg" viewBox="0 0 800 600" width="800" height="600">
  <!-- Background -->
  <rect width="800" height="600" fill="#f8f9fa" />
  
  <!-- Laboratory bench -->
  <rect x="50" y="350" width="700" height="200" fill="#e9ecef" stroke="#dee2e6" stroke-width="2" />
  
  <!-- Microscope -->
  <g transform="translate(150, 300)">
    <!-- Base -->
    <rect x="-40" y="50" width="80" height="10" fill="#495057" />
    <!-- Stand -->
    <rect x="-10" y="0" width="20" height="50" fill="#6c757d" />
    <!-- Head -->
    <ellipse cx="0" cy="-10" rx="30" ry="20" fill="#495057" />
    <!-- Eyepiece -->
    <rect x="-5" y="-40" width="10" height="30" fill="#343a40" />
    <!-- Objective lenses -->
    <circle cx="15" cy="20" r="8" fill="#343a40" />
    <circle cx="0" cy="20" r="8" fill="#343a40" />
    <circle cx="-15" cy="20" r="8" fill="#343a40" />
  </g>
  
  <!-- Test tubes in rack -->
  <g transform="translate(350, 320)">
    <!-- Rack -->
    <rect x="-60" y="30" width="120" height="30" fill="#6c757d" />
    <!-- Tubes -->
    <rect x="-50" y="-20" width="10" height="50" rx="5" fill="#e63946" opacity="0.7" />
    <rect x="-30" y="-30" width="10" height="60" rx="5" fill="#457b9d" opacity="0.7" />
    <rect x="-10" y="-25" width="10" height="55" rx="5" fill="#a8dadc" opacity="0.7" />
    <rect x="10" y="-35" width="10" height="65" rx="5" fill="#f1faee" opacity="0.9" />
    <rect x="30" y="-15" width="10" height="45" rx="5" fill="#ffb703" opacity="0.7" />
    <rect x="50" y="-25" width="10" height="55" rx="5" fill="#8ecae6" opacity="0.7" />
  </g>
  
  <!-- Flask -->
  <g transform="translate(550, 330)">
    <!-- Flask body -->
    <path d="M-20,20 L-30,-30 C-30,-40 30,-40 30,-30 L20,20 Z" fill="#a8dadc" opacity="0.8" stroke="#457b9d" stroke-width="2" />
    <!-- Liquid -->
    <path d="M-20,20 L-25,0 C-25,-5 25,-5 25,0 L20,20 Z" fill="#457b9d" opacity="0.5" />
    <!-- Neck -->
    <rect x="-5" y="-40" width="10" height="10" fill="#a8dadc" opacity="0.8" stroke="#457b9d" stroke-width="2" />
  </g>
  
  <!-- Petri dishes -->
  <g transform="translate(650, 330)">
    <!-- Dish 1 -->
    <circle cx="0" cy="0" r="25" fill="#f1faee" opacity="0.8" stroke="#a8dadc" stroke-width="2" />
    <circle cx="0" cy="0" r="20" fill="none" stroke="#a8dadc" stroke-width="1" />
    <!-- Dish 2 (stacked) -->
    <circle cx="20" cy="-10" r="25" fill="#f1faee" opacity="0.8" stroke="#a8dadc" stroke-width="2" />
    <circle cx="20" cy="-10" r="20" fill="none" stroke="#a8dadc" stroke-width="1" />
  </g>
  
  <!-- DNA helix symbol -->
  <g transform="translate(100, 150)">
    <path d="M0,0 C20,-15 40,15 60,0 C80,-15 100,15 120,0 C140,-15 160,15 180,0" fill="none" stroke="#457b9d" stroke-width="3" />
    <path d="M0,100 C20,85 40,115 60,100 C80,85 100,115 120,100 C140,85 160,115 180,100" fill="none" stroke="#457b9d" stroke-width="3" />
    
    <!-- Connecting lines -->
    <line x1="0" y1="0" x2="0" y2="100" stroke="#e63946" stroke-width="2" />
    <line x1="60" y1="0" x2="60" y2="100" stroke="#e63946" stroke-width="2" />
    <line x1="120" y1="0" x2="120" y2="100" stroke="#e63946" stroke-width="2" />
    <line x1="180" y1="0" x2="180" y2="100" stroke="#e63946" stroke-width="2" />
  </g>
  
  <!-- Cell/Tissue illustration -->
  <g transform="translate(450, 150)">
    <!-- Cell outline -->
    <circle cx="0" cy="0" r="80" fill="#f1faee" opacity="0.6" stroke="#457b9d" stroke-width="2" />
    <!-- Nucleus -->
    <circle cx="0" cy="0" r="30" fill="#a8dadc" opacity="0.7" stroke="#457b9d" stroke-width="1" />
    <!-- Organelles -->
    <circle cx="-40" cy="20" r="15" fill="#ffb703" opacity="0.6" stroke="#457b9d" stroke-width="1" />
    <circle cx="30" cy="-25" r="12" fill="#ffb703" opacity="0.6" stroke="#457b9d" stroke-width="1" />
    <circle cx="40" cy="30" r="10" fill="#ffb703" opacity="0.6" stroke="#457b9d" stroke-width="1" />
    <circle cx="-20" cy="-40" r="8" fill="#ffb703" opacity="0.6" stroke="#457b9d" stroke-width="1" />
  </g>
  
  <!-- Subtle grid pattern for scientific feel -->
  <path d="M0,100 H800 M0,200 H800 M0,300 H800 M0,400 H800 M0,500 H800" stroke="#dee2e6" stroke-width="0.5" opacity="0.5" />
  <path d="M100,0 V600 M200,0 V600 M300,0 V600 M400,0 V600 M500,0 V600 M600,0 V600 M700,0 V600" stroke="#dee2e6" stroke-width="0.5" opacity="0.5" />
</svg>